<svg width="161" height="54" viewBox="0 0 161 54" fill="none" xmlns="http://www.w3.org/2000/svg">
<path d="M59.784 22C59.624 22 59.496 21.952 59.4 21.856C59.304 21.76 59.256 21.632 59.256 21.472V5.752C59.256 5.576 59.304 5.44 59.4 5.344C59.496 5.248 59.624 5.2 59.784 5.2H64.896C66.592 5.2 67.92 5.448 68.88 5.944C69.84 6.44 70.52 7.176 70.92 8.152C71.336 9.112 71.552 10.288 71.568 11.68C71.584 12.4 71.592 13.04 71.592 13.6C71.592 14.144 71.584 14.776 71.568 15.496C71.536 16.968 71.32 18.184 70.92 19.144C70.52 20.104 69.848 20.824 68.904 21.304C67.96 21.768 66.664 22 65.016 22H59.784ZM60.768 20.56H64.896C66.176 20.56 67.184 20.392 67.92 20.056C68.672 19.704 69.208 19.152 69.528 18.4C69.864 17.632 70.04 16.624 70.056 15.376C70.072 14.896 70.08 14.48 70.08 14.128C70.08 13.76 70.08 13.4 70.08 13.048C70.08 12.696 70.072 12.28 70.056 11.8C70.024 10.04 69.616 8.744 68.832 7.912C68.048 7.064 66.696 6.64 64.776 6.64H60.768V20.56ZM75.7142 22C75.5542 22 75.4262 21.952 75.3302 21.856C75.2342 21.76 75.1862 21.632 75.1862 21.472V10.048C75.1862 9.888 75.2342 9.76 75.3302 9.664C75.4262 9.568 75.5542 9.52 75.7142 9.52H76.1222C76.2822 9.52 76.4102 9.568 76.5062 9.664C76.6022 9.76 76.6502 9.888 76.6502 10.048V21.472C76.6502 21.632 76.6022 21.76 76.5062 21.856C76.4102 21.952 76.2822 22 76.1222 22H75.7142ZM75.4502 6.952C75.2902 6.952 75.1622 6.904 75.0662 6.808C74.9702 6.712 74.9222 6.584 74.9222 6.424V5.512C74.9222 5.352 74.9702 5.224 75.0662 5.128C75.1622 5.016 75.2902 4.96 75.4502 4.96H76.3622C76.5222 4.96 76.6502 5.016 76.7462 5.128C76.8582 5.224 76.9142 5.352 76.9142 5.512V6.424C76.9142 6.584 76.8582 6.712 76.7462 6.808C76.6502 6.904 76.5222 6.952 76.3622 6.952H75.4502ZM84.4899 22.24C83.6579 22.24 82.9379 22.128 82.3299 21.904C81.7379 21.68 81.2499 21.416 80.8659 21.112C80.4819 20.792 80.1939 20.48 80.0019 20.176C79.8259 19.872 79.7299 19.64 79.7139 19.48C79.6979 19.304 79.7539 19.176 79.8819 19.096C80.0099 19 80.1299 18.952 80.2419 18.952H80.6019C80.6979 18.952 80.7779 18.968 80.8419 19C80.9219 19.032 81.0179 19.12 81.1299 19.264C81.3379 19.536 81.5779 19.8 81.8499 20.056C82.1219 20.296 82.4659 20.488 82.8819 20.632C83.3139 20.776 83.8499 20.848 84.4899 20.848C85.4499 20.848 86.2419 20.664 86.8659 20.296C87.4899 19.928 87.8019 19.384 87.8019 18.664C87.8019 18.216 87.6739 17.856 87.4179 17.584C87.1779 17.312 86.7619 17.072 86.1699 16.864C85.5779 16.656 84.7779 16.44 83.7699 16.216C82.7619 15.976 81.9859 15.688 81.4419 15.352C80.9139 15.016 80.5539 14.632 80.3619 14.2C80.1699 13.752 80.0739 13.272 80.0739 12.76C80.0739 12.2 80.2339 11.656 80.5539 11.128C80.8739 10.584 81.3459 10.144 81.9699 9.808C82.6099 9.456 83.4099 9.28 84.3699 9.28C85.1539 9.28 85.8179 9.384 86.3619 9.592C86.9219 9.8 87.3779 10.056 87.7299 10.36C88.0819 10.648 88.3379 10.936 88.4979 11.224C88.6739 11.512 88.7699 11.744 88.7859 11.92C88.8019 12.08 88.7539 12.208 88.6419 12.304C88.5299 12.4 88.4019 12.448 88.2579 12.448H87.8979C87.7699 12.448 87.6659 12.424 87.5859 12.376C87.5059 12.312 87.4339 12.232 87.3699 12.136C87.2099 11.88 87.0179 11.64 86.7939 11.416C86.5699 11.192 86.2659 11.016 85.8819 10.888C85.5139 10.744 85.0099 10.672 84.3699 10.672C83.4099 10.672 82.6979 10.872 82.2339 11.272C81.7699 11.656 81.5379 12.152 81.5379 12.76C81.5379 13.112 81.6339 13.424 81.8259 13.696C82.0179 13.952 82.3779 14.192 82.9059 14.416C83.4339 14.624 84.2019 14.848 85.2099 15.088C86.2339 15.312 87.0419 15.592 87.6339 15.928C88.2259 16.248 88.6419 16.632 88.8819 17.08C89.1379 17.528 89.2659 18.056 89.2659 18.664C89.2659 19.304 89.0819 19.896 88.7139 20.44C88.3619 20.984 87.8259 21.424 87.1059 21.76C86.4019 22.08 85.5299 22.24 84.4899 22.24ZM92.8944 22C92.7344 22 92.6064 21.952 92.5104 21.856C92.4144 21.76 92.3664 21.632 92.3664 21.472V5.488C92.3664 5.328 92.4144 5.2 92.5104 5.104C92.6064 5.008 92.7344 4.96 92.8944 4.96H93.3024C93.4624 4.96 93.5904 5.008 93.6864 5.104C93.7824 5.2 93.8304 5.328 93.8304 5.488V11.176C94.2624 10.616 94.7824 10.16 95.3904 9.808C96.0144 9.456 96.8384 9.28 97.8624 9.28C98.9504 9.28 99.8544 9.52 100.574 10C101.31 10.464 101.854 11.104 102.206 11.92C102.574 12.72 102.758 13.632 102.758 14.656V21.472C102.758 21.632 102.71 21.76 102.614 21.856C102.518 21.952 102.39 22 102.23 22H101.822C101.662 22 101.534 21.952 101.438 21.856C101.342 21.76 101.294 21.632 101.294 21.472V14.776C101.294 13.496 100.982 12.496 100.358 11.776C99.7344 11.04 98.8224 10.672 97.6224 10.672C96.4864 10.672 95.5664 11.04 94.8624 11.776C94.1744 12.496 93.8304 13.496 93.8304 14.776V21.472C93.8304 21.632 93.7824 21.76 93.6864 21.856C93.5904 21.952 93.4624 22 93.3024 22H92.8944Z" fill="black"/>
<path d="M57.864 46C57.704 46 57.576 45.944 57.48 45.832C57.384 45.72 57.352 45.576 57.384 45.4L60.696 29.8C60.728 29.624 60.816 29.48 60.96 29.368C61.104 29.256 61.256 29.2 61.416 29.2H67.08C68.136 29.2 69.096 29.344 69.96 29.632C70.824 29.92 71.544 30.344 72.12 30.904C72.712 31.448 73.128 32.128 73.368 32.944C73.608 33.76 73.632 34.696 73.44 35.752C73.312 36.456 73.192 37.072 73.08 37.6C72.968 38.128 72.824 38.736 72.648 39.424C72.28 40.912 71.76 42.144 71.088 43.12C70.432 44.096 69.56 44.824 68.472 45.304C67.4 45.768 66.04 46 64.392 46H57.864ZM61.728 42.904H64.536C65.352 42.904 66.032 42.784 66.576 42.544C67.136 42.304 67.592 41.928 67.944 41.416C68.312 40.888 68.592 40.208 68.784 39.376C68.912 38.912 69.016 38.496 69.096 38.128C69.176 37.76 69.248 37.392 69.312 37.024C69.392 36.656 69.472 36.248 69.552 35.8C69.776 34.6 69.656 33.72 69.192 33.16C68.744 32.584 67.912 32.296 66.696 32.296H63.984L61.728 42.904ZM79.8716 46.24C78.6556 46.24 77.6396 46.016 76.8236 45.568C76.0236 45.104 75.4716 44.424 75.1676 43.528C74.8636 42.632 74.8236 41.536 75.0476 40.24C75.0796 40.112 75.1116 39.944 75.1436 39.736C75.1916 39.512 75.2396 39.336 75.2876 39.208C75.6076 37.976 76.1036 36.92 76.7756 36.04C77.4636 35.144 78.3036 34.464 79.2956 34C80.3036 33.52 81.4076 33.28 82.6076 33.28C83.9516 33.28 85.0076 33.56 85.7756 34.12C86.5596 34.664 87.0796 35.416 87.3356 36.376C87.5916 37.32 87.5916 38.408 87.3356 39.64L87.2396 40.192C87.2076 40.352 87.1196 40.488 86.9756 40.6C86.8316 40.712 86.6716 40.768 86.4956 40.768H78.6716C78.6716 40.784 78.6636 40.816 78.6476 40.864C78.6476 40.896 78.6396 40.928 78.6236 40.96C78.5436 41.472 78.5436 41.944 78.6236 42.376C78.7036 42.792 78.8876 43.128 79.1756 43.384C79.4796 43.64 79.8716 43.768 80.3516 43.768C80.7356 43.768 81.0716 43.712 81.3596 43.6C81.6476 43.488 81.8876 43.352 82.0796 43.192C82.2876 43.032 82.4476 42.896 82.5596 42.784C82.7356 42.624 82.8716 42.528 82.9676 42.496C83.0636 42.448 83.2076 42.424 83.3996 42.424H85.8956C86.0556 42.424 86.1756 42.472 86.2556 42.568C86.3356 42.648 86.3516 42.768 86.3036 42.928C86.2396 43.184 86.0396 43.504 85.7036 43.888C85.3836 44.256 84.9436 44.624 84.3836 44.992C83.8236 45.344 83.1596 45.64 82.3916 45.88C81.6396 46.12 80.7996 46.24 79.8716 46.24ZM79.1516 38.584H83.8556V38.536C83.9996 37.96 84.0156 37.464 83.9036 37.048C83.8076 36.616 83.6076 36.28 83.3036 36.04C82.9996 35.8 82.5996 35.68 82.1036 35.68C81.6076 35.68 81.1596 35.8 80.7596 36.04C80.3596 36.28 80.0236 36.616 79.7516 37.048C79.4956 37.464 79.2956 37.96 79.1516 38.536V38.584ZM88.6078 46C88.4478 46 88.3198 45.944 88.2238 45.832C88.1278 45.72 88.0958 45.576 88.1278 45.4L91.5118 29.56C91.5438 29.384 91.6238 29.24 91.7518 29.128C91.8958 29.016 92.0478 28.96 92.2078 28.96H94.6078C94.7838 28.96 94.9118 29.016 94.9918 29.128C95.0878 29.24 95.1198 29.384 95.0878 29.56L91.7038 45.4C91.6718 45.576 91.5918 45.72 91.4638 45.832C91.3358 45.944 91.1838 46 91.0078 46H88.6078ZM95.2406 46C95.0806 46 94.9526 45.944 94.8566 45.832C94.7606 45.72 94.7286 45.576 94.7606 45.4L97.1606 34.12C97.1926 33.944 97.2806 33.8 97.4246 33.688C97.5686 33.576 97.7206 33.52 97.8806 33.52H100.281C100.457 33.52 100.585 33.576 100.665 33.688C100.745 33.8 100.769 33.944 100.737 34.12L98.3366 45.4C98.3046 45.576 98.2246 45.72 98.0966 45.832C97.9686 45.944 97.8166 46 97.6406 46H95.2406ZM98.2406 31.6C98.0646 31.6 97.9286 31.544 97.8326 31.432C97.7526 31.32 97.7286 31.176 97.7606 31L98.1686 29.08C98.2006 28.904 98.2806 28.76 98.4086 28.648C98.5526 28.52 98.7126 28.456 98.8886 28.456H101.409C101.585 28.456 101.713 28.52 101.793 28.648C101.889 28.76 101.921 28.904 101.889 29.08L101.457 31C101.441 31.176 101.361 31.32 101.217 31.432C101.073 31.544 100.921 31.6 100.761 31.6H98.2406ZM106.122 51.28C104.97 51.28 104.034 51.12 103.314 50.8C102.594 50.496 102.034 50.12 101.634 49.672C101.234 49.24 100.97 48.808 100.842 48.376C100.698 47.944 100.65 47.608 100.698 47.368C100.73 47.192 100.81 47.048 100.938 46.936C101.05 46.824 101.186 46.768 101.346 46.768H103.986C104.13 46.768 104.242 46.8 104.322 46.864C104.402 46.944 104.458 47.072 104.49 47.248C104.522 47.44 104.586 47.64 104.682 47.848C104.778 48.072 104.954 48.256 105.21 48.4C105.466 48.544 105.85 48.616 106.362 48.616C106.842 48.616 107.29 48.536 107.706 48.376C108.122 48.216 108.482 47.944 108.786 47.56C109.106 47.176 109.33 46.656 109.458 46L109.794 44.392C109.33 44.808 108.81 45.152 108.234 45.424C107.674 45.696 106.97 45.832 106.122 45.832C105.258 45.832 104.53 45.704 103.938 45.448C103.346 45.176 102.882 44.8 102.546 44.32C102.21 43.824 101.994 43.232 101.898 42.544C101.802 41.856 101.826 41.08 101.97 40.216C102.002 39.976 102.034 39.768 102.066 39.592C102.114 39.4 102.17 39.184 102.234 38.944C102.458 38.112 102.746 37.352 103.098 36.664C103.45 35.976 103.874 35.384 104.37 34.888C104.866 34.376 105.442 33.984 106.098 33.712C106.77 33.424 107.538 33.28 108.402 33.28C109.282 33.28 110.018 33.448 110.61 33.784C111.218 34.12 111.666 34.536 111.954 35.032L112.146 34.12C112.178 33.96 112.266 33.824 112.41 33.712C112.554 33.584 112.706 33.52 112.866 33.52H115.218C115.394 33.52 115.522 33.584 115.602 33.712C115.698 33.824 115.73 33.96 115.698 34.12L113.25 45.664C113.074 46.56 112.802 47.352 112.434 48.04C112.066 48.744 111.594 49.336 111.018 49.816C110.442 50.296 109.746 50.656 108.93 50.896C108.13 51.152 107.194 51.28 106.122 51.28ZM107.466 43.024C108.042 43.024 108.546 42.896 108.978 42.64C109.41 42.368 109.762 42.032 110.034 41.632C110.322 41.216 110.53 40.784 110.658 40.336C110.706 40.16 110.762 39.912 110.826 39.592C110.89 39.256 110.938 39 110.97 38.824C111.034 38.376 111.026 37.952 110.946 37.552C110.866 37.136 110.674 36.8 110.37 36.544C110.082 36.288 109.65 36.16 109.074 36.16C108.498 36.16 108.002 36.296 107.586 36.568C107.17 36.824 106.826 37.168 106.554 37.6C106.298 38.032 106.098 38.504 105.954 39.016C105.906 39.192 105.858 39.384 105.81 39.592C105.778 39.784 105.746 39.968 105.714 40.144C105.634 40.672 105.618 41.152 105.666 41.584C105.714 42.016 105.874 42.368 106.146 42.64C106.434 42.896 106.874 43.024 107.466 43.024ZM116.803 46C116.643 46 116.515 45.944 116.419 45.832C116.323 45.72 116.291 45.576 116.323 45.4L119.707 29.56C119.739 29.384 119.819 29.24 119.947 29.128C120.091 29.016 120.243 28.96 120.403 28.96H122.995C123.171 28.96 123.299 29.016 123.379 29.128C123.475 29.24 123.507 29.384 123.475 29.56L122.323 34.96C122.819 34.448 123.379 34.04 124.003 33.736C124.643 33.432 125.395 33.28 126.259 33.28C127.283 33.28 128.131 33.496 128.803 33.928C129.475 34.344 129.939 34.96 130.195 35.776C130.451 36.576 130.459 37.552 130.219 38.704L128.779 45.4C128.747 45.576 128.659 45.72 128.515 45.832C128.387 45.944 128.243 46 128.083 46H125.467C125.291 46 125.155 45.944 125.059 45.832C124.979 45.72 124.955 45.576 124.987 45.4L126.379 38.848C126.555 38 126.507 37.344 126.235 36.88C125.979 36.4 125.459 36.16 124.675 36.16C124.179 36.16 123.707 36.264 123.259 36.472C122.827 36.68 122.451 36.984 122.131 37.384C121.827 37.784 121.611 38.272 121.483 38.848L120.091 45.4C120.059 45.576 119.979 45.72 119.851 45.832C119.723 45.944 119.571 46 119.395 46H116.803ZM137.511 46C136.423 46 135.551 45.84 134.895 45.52C134.239 45.184 133.799 44.672 133.575 43.984C133.367 43.296 133.367 42.432 133.575 41.392L134.655 36.352H132.783C132.607 36.352 132.471 36.296 132.375 36.184C132.295 36.072 132.271 35.928 132.303 35.752L132.639 34.12C132.671 33.944 132.759 33.8 132.903 33.688C133.047 33.576 133.199 33.52 133.359 33.52H135.255L136.095 29.56C136.127 29.384 136.207 29.24 136.335 29.128C136.479 29.016 136.639 28.96 136.815 28.96H139.167C139.327 28.96 139.455 29.016 139.551 29.128C139.647 29.24 139.679 29.384 139.647 29.56L138.783 33.52H141.783C141.959 33.52 142.087 33.576 142.167 33.688C142.247 33.8 142.271 33.944 142.239 34.12L141.903 35.752C141.871 35.928 141.783 36.072 141.639 36.184C141.511 36.296 141.359 36.352 141.183 36.352H138.183L137.175 41.104C137.095 41.504 137.047 41.856 137.031 42.16C137.031 42.448 137.111 42.672 137.271 42.832C137.447 42.976 137.743 43.048 138.159 43.048H139.983C140.143 43.048 140.263 43.104 140.343 43.216C140.439 43.328 140.471 43.464 140.439 43.624L140.055 45.4C140.023 45.576 139.943 45.72 139.815 45.832C139.687 45.944 139.535 46 139.359 46H137.511ZM147.192 46.24C146.2 46.24 145.368 46.128 144.696 45.904C144.04 45.664 143.528 45.376 143.16 45.04C142.792 44.704 142.536 44.368 142.392 44.032C142.264 43.68 142.216 43.384 142.248 43.144C142.28 42.968 142.36 42.824 142.488 42.712C142.632 42.6 142.776 42.544 142.92 42.544H145.224C145.288 42.544 145.336 42.552 145.368 42.568C145.416 42.584 145.464 42.624 145.512 42.688C145.688 42.832 145.864 43 146.04 43.192C146.232 43.368 146.464 43.52 146.736 43.648C147.008 43.776 147.36 43.84 147.792 43.84C148.32 43.84 148.792 43.736 149.208 43.528C149.624 43.304 149.872 42.992 149.952 42.592C150.016 42.304 149.984 42.064 149.856 41.872C149.728 41.68 149.448 41.504 149.016 41.344C148.584 41.184 147.936 41.008 147.072 40.816C146.256 40.624 145.576 40.368 145.032 40.048C144.504 39.728 144.136 39.328 143.928 38.848C143.72 38.352 143.688 37.76 143.832 37.072C143.976 36.448 144.296 35.848 144.792 35.272C145.304 34.696 145.984 34.224 146.832 33.856C147.696 33.472 148.704 33.28 149.856 33.28C150.736 33.28 151.488 33.392 152.112 33.616C152.736 33.824 153.232 34.096 153.6 34.432C153.984 34.752 154.248 35.088 154.392 35.44C154.552 35.776 154.608 36.072 154.56 36.328C154.544 36.488 154.464 36.624 154.32 36.736C154.192 36.848 154.056 36.904 153.912 36.904H151.8C151.72 36.904 151.648 36.896 151.584 36.88C151.536 36.848 151.496 36.808 151.464 36.76C151.288 36.632 151.12 36.488 150.96 36.328C150.8 36.152 150.592 36 150.336 35.872C150.096 35.744 149.76 35.68 149.328 35.68C148.8 35.68 148.368 35.8 148.032 36.04C147.712 36.264 147.512 36.552 147.432 36.904C147.384 37.128 147.408 37.336 147.504 37.528C147.616 37.72 147.872 37.896 148.272 38.056C148.688 38.216 149.336 38.384 150.216 38.56C151.256 38.752 152.056 39.04 152.616 39.424C153.192 39.808 153.56 40.256 153.72 40.768C153.896 41.264 153.92 41.8 153.792 42.376C153.648 43.128 153.288 43.8 152.712 44.392C152.136 44.968 151.384 45.424 150.456 45.76C149.528 46.08 148.44 46.24 147.192 46.24Z" fill="#FF8B00"/>
<mask id="mask0_2_55" style="mask-type:alpha" maskUnits="userSpaceOnUse" x="0" y="0" width="51" height="51">
<rect width="51" height="51" fill="#D9D9D9"/>
</mask>
<g mask="url(#mask0_2_55)">
<path d="M14.4665 44.625V26.4892C12.554 25.9934 11.0813 25.1405 10.0486 23.9307C9.0162 22.7212 8.5 21.2419 8.5 19.4926V6.375H10.625V18.4301H14.4665V6.375H16.5915V18.4301H20.4329V6.375H22.5579V19.4926C22.5579 21.2419 22.0416 22.7212 21.0088 23.9307C19.9764 25.1405 18.504 25.9934 16.5915 26.4892V44.625H14.4665ZM34.3676 44.625V25.7736C32.4551 25.1088 30.9827 23.9353 29.9503 22.253C28.9179 20.5707 28.4017 18.5323 28.4017 16.1378C28.4017 13.4489 29.0909 11.1495 30.4693 9.2395C31.8477 7.32983 33.5013 6.375 35.4301 6.375C37.3862 6.375 39.0536 7.33196 40.4324 9.24587C41.8108 11.1598 42.5 13.4612 42.5 16.15C42.5 18.5718 41.9769 20.6219 40.9307 22.3003C39.8845 23.9783 38.4051 25.1361 36.4926 25.7736V44.625H34.3676Z" fill="#4A101D"/>
</g>
</svg>
