<svg width="51" height="51" viewBox="0 0 51 51" fill="none" xmlns="http://www.w3.org/2000/svg">
<mask id="mask0_2_51" style="mask-type:alpha" maskUnits="userSpaceOnUse" x="0" y="0" width="51" height="51">
<rect width="51" height="51" fill="#D9D9D9"/>
</mask>
<g mask="url(#mask0_2_51)">
<path d="M14.4665 44.625V26.4892C12.554 25.9934 11.0813 25.1405 10.0486 23.9307C9.0162 22.7212 8.5 21.2419 8.5 19.4926V6.375H10.625V18.4301H14.4665V6.375H16.5915V18.4301H20.4329V6.375H22.5579V19.4926C22.5579 21.2419 22.0416 22.7212 21.0088 23.9307C19.9764 25.1405 18.504 25.9934 16.5915 26.4892V44.625H14.4665ZM34.3676 44.625V25.7736C32.4551 25.1088 30.9827 23.9353 29.9503 22.253C28.9179 20.5707 28.4017 18.5323 28.4017 16.1378C28.4017 13.4489 29.0909 11.1495 30.4693 9.2395C31.8477 7.32983 33.5013 6.375 35.4301 6.375C37.3862 6.375 39.0536 7.33196 40.4324 9.24587C41.8108 11.1598 42.5 13.4612 42.5 16.15C42.5 18.5718 41.9769 20.6219 40.9307 22.3003C39.8845 23.9783 38.4051 25.1361 36.4926 25.7736V44.625H34.3676Z" fill="#FF6F00"/>
</g>
</svg>
